<?xml version="1.0" encoding="UTF-8" standalone="no"?><!DOCTYPE svg PUBLIC "-//W3C//DTD SVG 1.1//EN" "http://www.w3.org/Graphics/SVG/1.1/DTD/svg11.dtd"><svg width="100%" height="100%" viewBox="0 0 100 44" version="1.1" xmlns="http://www.w3.org/2000/svg" xmlns:xlink="http://www.w3.org/1999/xlink" xml:space="preserve" xmlns:serif="http://www.serif.com/" style="fill-rule:evenodd;clip-rule:evenodd;stroke-linejoin:round;stroke-miterlimit:2;"><g><path d="M9.731,24.971l-9.64,-24.88l3.564,-0l6.466,18.074c0.52,1.449 0.956,2.806 1.307,4.074c0.384,-1.358 0.831,-2.716 1.341,-4.074l6.72,-18.074l3.361,-0l-9.742,24.88l-3.377,0Z" style="fill:#fff;fill-rule:nonzero;stroke:#363636;stroke-width:0.18px;"/><path d="M34.594,22.748c-1.131,0.962 -2.22,1.64 -3.267,2.036c-1.047,0.396 -2.17,0.594 -3.369,0.594c-1.98,0 -3.502,-0.483 -4.565,-1.451c-1.064,-0.967 -1.596,-2.203 -1.596,-3.708c0,-0.882 0.201,-1.689 0.603,-2.418c0.402,-0.73 0.928,-1.316 1.578,-1.757c0.651,-0.441 1.383,-0.775 2.198,-1.001c0.6,-0.159 1.505,-0.311 2.716,-0.459c2.466,-0.294 4.282,-0.644 5.447,-1.052c0.012,-0.418 0.017,-0.684 0.017,-0.797c0,-1.245 -0.288,-2.122 -0.865,-2.631c-0.781,-0.69 -1.941,-1.035 -3.479,-1.035c-1.437,-0 -2.498,0.251 -3.183,0.755c-0.684,0.503 -1.19,1.394 -1.518,2.673l-2.987,-0.407c0.271,-1.279 0.718,-2.311 1.34,-3.098c0.623,-0.786 1.522,-1.391 2.699,-1.816c1.176,-0.424 2.54,-0.636 4.09,-0.636c1.539,-0 2.789,0.181 3.751,0.543c0.961,0.362 1.668,0.818 2.121,1.366c0.453,0.549 0.769,1.242 0.95,2.079c0.102,0.521 0.153,1.46 0.153,2.818l0,4.073c0,2.84 0.065,4.636 0.195,5.388c0.131,0.753 0.388,1.474 0.773,2.164l-3.191,0c-0.317,-0.634 -0.521,-1.375 -0.611,-2.223Zm-0.255,-6.823c-1.108,0.453 -2.772,0.837 -4.989,1.154c-1.256,0.181 -2.144,0.385 -2.665,0.611c-0.52,0.227 -0.922,0.558 -1.205,0.993c-0.283,0.436 -0.424,0.919 -0.424,1.451c-0,0.815 0.308,1.494 0.925,2.037c0.617,0.543 1.519,0.814 2.707,0.814c1.177,0 2.223,-0.257 3.14,-0.772c0.916,-0.515 1.589,-1.219 2.019,-2.113c0.328,-0.69 0.492,-1.708 0.492,-3.055l0,-1.12Z" style="fill:#fff;fill-rule:nonzero;stroke:#363636;stroke-width:0.18px;"/><path d="M47.17,24.971l-6.857,-18.024l3.225,0l3.869,10.794c0.419,1.166 0.804,2.376 1.155,3.632c0.271,-0.95 0.65,-2.093 1.137,-3.428l4.005,-10.998l3.14,0l-6.823,18.024l-2.851,0Z" style="fill:#fff;fill-rule:nonzero;stroke:#363636;stroke-width:0.18px;"/><path d="M71.303,22.748c-1.131,0.962 -2.22,1.64 -3.267,2.036c-1.046,0.396 -2.169,0.594 -3.368,0.594c-1.98,0 -3.502,-0.483 -4.566,-1.451c-1.063,-0.967 -1.595,-2.203 -1.595,-3.708c-0,-0.882 0.201,-1.689 0.602,-2.418c0.402,-0.73 0.928,-1.316 1.579,-1.757c0.65,-0.441 1.383,-0.775 2.198,-1.001c0.599,-0.159 1.504,-0.311 2.715,-0.459c2.467,-0.294 4.283,-0.644 5.448,-1.052c0.011,-0.418 0.017,-0.684 0.017,-0.797c-0,-1.245 -0.289,-2.122 -0.866,-2.631c-0.78,-0.69 -1.94,-1.035 -3.479,-1.035c-1.437,-0 -2.498,0.251 -3.182,0.755c-0.685,0.503 -1.191,1.394 -1.519,2.673l-2.987,-0.407c0.272,-1.279 0.718,-2.311 1.341,-3.098c0.622,-0.786 1.522,-1.391 2.698,-1.816c1.177,-0.424 2.54,-0.636 4.09,-0.636c1.539,-0 2.789,0.181 3.751,0.543c0.962,0.362 1.669,0.818 2.122,1.366c0.452,0.549 0.769,1.242 0.95,2.079c0.102,0.521 0.153,1.46 0.153,2.818l-0,4.073c-0,2.84 0.065,4.636 0.195,5.388c0.13,0.753 0.387,1.474 0.772,2.164l-3.191,0c-0.316,-0.634 -0.52,-1.375 -0.611,-2.223Zm-0.254,-6.823c-1.109,0.453 -2.772,0.837 -4.99,1.154c-1.256,0.181 -2.144,0.385 -2.664,0.611c-0.521,0.227 -0.922,0.558 -1.205,0.993c-0.283,0.436 -0.425,0.919 -0.425,1.451c0,0.815 0.309,1.494 0.925,2.037c0.617,0.543 1.519,0.814 2.707,0.814c1.177,0 2.224,-0.257 3.14,-0.772c0.917,-0.515 1.59,-1.219 2.02,-2.113c0.328,-0.69 0.492,-1.708 0.492,-3.055l-0,-1.12Z" style="fill:#fff;fill-rule:nonzero;stroke:#363636;stroke-width:0.18px;"/><rect x="16.768" y="18.52" width="3.292" height="24.88" style="fill:#fff;fill-rule:nonzero;stroke:#363636;stroke-width:0.18px;"/><path d="M25.474,43.4l0,-18.023l2.733,-0l-0,2.528c0.565,-0.882 1.318,-1.592 2.257,-2.13c0.939,-0.537 2.008,-0.806 3.208,-0.806c1.335,0 2.429,0.278 3.284,0.832c0.854,0.554 1.456,1.329 1.807,2.325c1.426,-2.104 3.281,-3.157 5.567,-3.157c1.787,0 3.162,0.495 4.124,1.485c0.961,0.99 1.442,2.515 1.442,4.574l0,12.372l-3.038,0l0,-11.354c0,-1.221 -0.099,-2.101 -0.297,-2.639c-0.198,-0.537 -0.557,-0.97 -1.077,-1.298c-0.521,-0.328 -1.132,-0.492 -1.833,-0.492c-1.267,-0 -2.32,0.421 -3.157,1.264c-0.837,0.843 -1.256,2.192 -1.256,4.048l0,10.471l-3.055,0l0,-11.71c0,-1.358 -0.249,-2.376 -0.746,-3.055c-0.498,-0.679 -1.313,-1.018 -2.444,-1.018c-0.86,-0 -1.655,0.226 -2.385,0.679c-0.73,0.452 -1.259,1.114 -1.587,1.985c-0.328,0.872 -0.492,2.128 -0.492,3.768l0,9.351l-3.055,0Z" style="fill:#fff;fill-rule:nonzero;stroke:#363636;stroke-width:0.18px;"/><path d="M54.428,43.4l-0,-18.023l2.732,-0l0,2.528c0.566,-0.882 1.318,-1.592 2.257,-2.13c0.94,-0.537 2.009,-0.806 3.208,-0.806c1.335,0 2.43,0.278 3.284,0.832c0.854,0.554 1.457,1.329 1.808,2.325c1.425,-2.104 3.281,-3.157 5.566,-3.157c1.788,0 3.163,0.495 4.124,1.485c0.962,0.99 1.443,2.515 1.443,4.574l-0,12.372l-3.038,0l-0,-11.354c-0,-1.221 -0.099,-2.101 -0.297,-2.639c-0.198,-0.537 -0.557,-0.97 -1.078,-1.298c-0.52,-0.328 -1.131,-0.492 -1.833,-0.492c-1.267,-0 -2.319,0.421 -3.156,1.264c-0.838,0.843 -1.256,2.192 -1.256,4.048l-0,10.471l-3.055,0l-0,-11.71c-0,-1.358 -0.249,-2.376 -0.747,-3.055c-0.498,-0.679 -1.312,-1.018 -2.444,-1.018c-0.86,-0 -1.655,0.226 -2.384,0.679c-0.73,0.452 -1.259,1.114 -1.587,1.985c-0.328,0.872 -0.492,2.128 -0.492,3.768l-0,9.351l-3.055,0Z" style="fill:#fff;fill-rule:nonzero;stroke:#363636;stroke-width:0.18px;"/><path d="M82.244,34.389c0,-3.338 0.928,-5.81 2.784,-7.417c1.55,-1.335 3.439,-2.003 5.668,-2.003c2.478,0 4.503,0.812 6.076,2.436c1.573,1.623 2.359,3.866 2.359,6.729c-0,2.319 -0.348,4.144 -1.044,5.473c-0.696,1.33 -1.708,2.362 -3.038,3.098c-1.329,0.735 -2.78,1.103 -4.353,1.103c-2.523,-0 -4.563,-0.809 -6.118,-2.427c-1.556,-1.618 -2.334,-3.949 -2.334,-6.992Zm3.14,-0c-0,2.308 0.503,4.036 1.51,5.184c1.007,1.149 2.275,1.723 3.802,1.723c1.516,-0 2.778,-0.577 3.785,-1.731c1.007,-1.154 1.51,-2.914 1.51,-5.278c0,-2.229 -0.506,-3.918 -1.519,-5.066c-1.012,-1.149 -2.271,-1.723 -3.776,-1.723c-1.527,0 -2.795,0.571 -3.802,1.714c-1.007,1.143 -1.51,2.868 -1.51,5.177Z" style="fill:#fff;fill-rule:nonzero;stroke:#363636;stroke-width:0.18px;"/></g></svg>